<svg width="325" height="146" viewBox="0 0 325 146" fill="none" xmlns="http://www.w3.org/2000/svg">
<path d="M28.0817 85.5466H48.3549V96.1197H12.605V39.8897H28.0817V85.5466ZM52.6597 73.6918C52.6597 69.0996 53.6249 65.0675 55.5559 61.5967C57.5472 58.1257 60.2319 55.4555 63.6112 53.5867C66.9899 51.7179 70.7612 50.7833 74.9244 50.7833C78.4842 50.7833 81.5914 51.4241 84.2464 52.7056C86.9617 53.9872 89.0434 55.6694 90.4914 57.752V51.4241H105.968V96.1197H90.4914V89.7918C88.9829 91.8744 86.8712 93.5566 84.1559 94.838C81.5009 96.1197 78.3937 96.7605 74.8339 96.7605C70.7307 96.7605 66.9899 95.8259 63.6112 93.9571C60.2319 92.0346 57.5472 89.3379 55.5559 85.8669C53.6249 82.3424 52.6597 78.2841 52.6597 73.6918ZM90.4914 73.7718C90.4914 70.354 89.4054 67.6577 87.2332 65.6818C85.1212 63.7059 82.5269 62.718 79.4497 62.718C76.3724 62.718 73.7477 63.7059 71.5757 65.6818C69.4634 67.6041 68.4079 70.2741 68.4079 73.6918C68.4079 77.1096 69.4634 79.8328 71.5757 81.862C73.7477 83.8379 76.3724 84.8256 79.4497 84.8256C82.5269 84.8256 85.1212 83.8379 87.2332 81.862C89.4054 79.886 90.4914 77.1895 90.4914 73.7718ZM132.641 58.8733C134.451 56.4169 136.714 54.4944 139.429 53.106C142.144 51.6642 145.161 50.9434 148.48 50.9434V65.4415H144.226C140.364 65.4415 137.468 66.189 135.537 67.6843C133.607 69.1261 132.641 71.6894 132.641 75.374V96.1197H117.164V51.4241H132.641V58.8733Z" fill="black"/>
<path d="M178.758 118.162C174.112 118.162 169.949 117.494 166.268 116.159C162.588 114.824 159.631 112.849 157.399 110.232C155.226 107.615 154.08 104.465 153.959 100.78H170.432C170.673 102.863 171.488 104.465 172.875 105.586C174.263 106.654 176.073 107.188 178.306 107.188C180.598 107.188 182.408 106.734 183.736 105.826C185.064 104.865 185.727 103.557 185.727 101.901C185.727 100.513 185.184 99.3649 184.098 98.4572C183.072 97.5496 181.775 96.8016 180.206 96.2145C178.698 95.6271 176.525 94.9593 173.69 94.212C169.587 93.0905 166.238 91.969 163.644 90.8477C161.049 89.7262 158.817 88.0708 156.946 85.8815C155.075 83.6921 154.14 80.8353 154.14 77.3108C154.14 72.0777 156.283 67.9927 160.566 65.0556C164.85 62.0653 170.432 60.57 177.31 60.57C184.309 60.57 189.951 62.0653 194.235 65.0556C198.519 67.9927 200.812 72.1045 201.113 77.391H184.37C184.249 75.5752 183.494 74.1604 182.107 73.1456C180.719 72.0777 178.939 71.5436 176.767 71.5436C174.896 71.5436 173.388 71.9978 172.242 72.9054C171.095 73.7599 170.522 75.0146 170.522 76.67C170.522 78.4858 171.488 79.9006 173.418 80.9154C175.349 81.93 178.366 83.0246 182.469 84.1993C186.572 85.4275 189.89 86.6025 192.425 87.7238C195.019 88.8453 197.251 90.4737 199.122 92.6098C200.993 94.7459 201.928 97.4959 201.928 100.86C201.928 104.064 200.993 106.974 199.122 109.591C197.312 112.208 194.657 114.29 191.157 115.839C187.658 117.387 183.525 118.162 178.758 118.162ZM234.441 118.242C229.493 118.242 225.028 117.307 221.046 115.438C217.124 113.569 214.016 110.899 211.724 107.428C209.491 103.957 208.375 99.899 208.375 95.2531C208.375 90.6608 209.521 86.629 211.814 83.1582C214.107 79.6338 217.245 76.9368 221.227 75.068C225.209 73.1992 229.674 72.2646 234.622 72.2646C239.569 72.2646 244.035 73.1992 248.017 75.068C252 76.9368 255.137 79.6338 257.43 83.1582C259.722 86.629 260.87 90.6608 260.87 95.2531C260.87 99.8454 259.692 103.904 257.34 107.428C255.045 110.899 251.877 113.569 247.836 115.438C243.854 117.307 239.388 118.242 234.441 118.242ZM234.441 106.387C237.397 106.387 239.901 105.426 241.953 103.503C244.065 101.581 245.121 98.831 245.121 95.2531C245.121 91.6752 244.095 88.9252 242.043 87.003C240.052 85.0805 237.578 84.1194 234.622 84.1194C231.605 84.1194 229.101 85.0805 227.11 87.003C225.119 88.8718 224.123 91.6222 224.123 95.2531C224.123 98.831 225.088 101.581 227.019 103.503C229.011 105.426 231.484 106.387 234.441 106.387ZM299.852 72.4248C305.765 72.4248 310.47 74.1334 313.97 77.5512C317.53 80.9152 319.31 85.5612 319.31 91.4885V117.601H303.925V93.3308C303.925 90.3405 303.05 88.0176 301.3 86.3621C299.55 84.7065 297.197 83.879 294.24 83.879C291.282 83.879 288.93 84.7065 287.18 86.3621C285.43 88.0176 284.555 90.3405 284.555 93.3308V117.601H269.08V72.9054H284.555V78.8328C286.125 76.8569 288.237 75.3084 290.892 74.1869C293.545 73.0121 296.532 72.4248 299.852 72.4248Z" fill="url(#paint0_linear_35_7)"/>
<path d="M53.6052 20.5059C55.264 22.074 56.374 23.7228 56.9355 25.4521C57.5117 27.169 57.5222 28.8438 56.9667 30.476C56.4402 32.1092 55.3887 33.5791 53.8117 34.8855C52.5357 35.943 51.1385 36.7264 49.6205 37.2361C48.1165 37.759 46.6267 37.9086 45.1507 37.6855C43.7035 37.4627 42.4247 36.8266 41.314 35.7767C40.5692 35.0723 40.1082 34.3569 39.9315 33.6305C39.769 32.9174 39.8885 32.2449 40.2905 31.6126C39.3112 31.7256 38.3472 31.6267 37.3982 31.3157C36.4645 30.9922 35.632 30.485 34.901 29.7939C33.8607 28.8105 33.3687 27.7593 33.4247 26.6405C33.5102 25.5224 34.131 24.4844 35.287 23.5264C36.3832 22.6181 37.6227 21.9653 39.0055 21.5677C40.4032 21.1577 41.7675 21.0622 43.0982 21.2813C44.4292 21.5005 45.5585 22.0486 46.486 22.9256C47.6667 24.0419 48.0177 25.1726 47.5385 26.318L48.922 25.5082L51.8322 28.2591L45.2507 32.0663C44.938 32.2503 44.6767 32.4295 44.4665 32.6036C43.806 33.1512 43.7495 33.684 44.298 34.2022C44.9725 34.8401 45.944 34.9457 47.2115 34.5191C48.5077 34.0932 49.7567 33.3826 50.958 32.3873C52.685 30.9565 53.523 29.3516 53.4727 27.5729C53.437 25.8074 52.4982 24.0541 50.6565 22.3132C49.082 20.8247 47.2427 19.8051 45.1385 19.2543C43.048 18.7168 40.932 18.6873 38.7895 19.1658C36.6617 19.6318 34.7572 20.5615 33.0755 21.9549C31.2585 23.4604 30.339 25.0949 30.317 26.8588C30.309 28.636 31.1977 30.3685 32.983 32.0562C34.3747 33.3718 35.8892 34.3242 37.5262 34.9129L35.6405 37.4852C33.6172 36.7177 31.748 35.5234 30.0327 33.9021C28.4302 32.3871 27.3477 30.7779 26.7855 29.0742C26.2372 27.3838 26.2407 25.7225 26.7965 24.0902C27.352 22.4577 28.4407 20.9698 30.0625 19.626C32.3297 17.7474 34.8785 16.5209 37.7087 15.9465C40.5537 15.3598 43.366 15.4612 46.145 16.2506C48.9537 17.0409 51.44 18.4593 53.6052 20.5059ZM38.8522 28.6147C39.246 28.9868 39.739 29.2267 40.3317 29.3341C40.9385 29.4547 41.5502 29.4341 42.1677 29.2717C42.814 29.1102 43.385 28.8242 43.8802 28.4136C44.391 27.9907 44.6702 27.5221 44.7187 27.0084C44.7817 26.4822 44.5817 25.9999 44.1177 25.5612C43.499 24.9766 42.701 24.7279 41.7225 24.8153C40.744 24.9027 39.8645 25.2699 39.0837 25.9168C38.5882 26.3274 38.3097 26.7699 38.2485 27.2447C38.187 27.7196 38.3882 28.1762 38.8522 28.6147Z" fill="#0A2E22"/>
<defs>
<linearGradient id="paint0_linear_35_7" x1="259.587" y1="57.3441" x2="180.518" y2="123.399" gradientUnits="userSpaceOnUse">
<stop stop-color="#4976ED"/>
<stop offset="1" stop-color="#A48BD1"/>
</linearGradient>
</defs>
</svg>
