<svg width="17" height="17" viewBox="0 0 17 17" fill="none" xmlns="http://www.w3.org/2000/svg">
<path d="M7.74001 11.9575C7.68454 11.9577 7.62939 11.9491 7.57665 11.9319C7.4818 11.9012 7.3975 11.8445 7.33339 11.7681C7.26927 11.6918 7.22792 11.599 7.21407 11.5003C7.14268 11.0022 6.55167 10.4225 5.99817 10.3099C5.90677 10.291 5.82197 10.2484 5.75229 10.1863C5.68261 10.1242 5.63053 10.0448 5.60127 9.95618C5.57202 9.86755 5.56664 9.77277 5.58566 9.6814C5.60468 9.59002 5.64744 9.50527 5.70964 9.43568L12.7185 1.62963C12.7248 1.62232 12.7314 1.61535 12.7381 1.60871C13.0902 1.2576 13.5671 1.06042 14.0644 1.06042C14.5616 1.06042 15.0386 1.2576 15.3907 1.60871C15.7416 1.95991 15.9391 2.43591 15.9398 2.93243C15.9405 3.42894 15.7443 3.90548 15.3943 4.25765L8.12284 11.7948C8.07325 11.8462 8.01379 11.8872 7.94801 11.9151C7.88223 11.9431 7.81148 11.9575 7.74001 11.9575Z" fill="black"/>
<path d="M3.97942 15.9418C2.91227 15.9418 1.80628 15.381 1.16214 14.5141C1.10343 14.4351 1.06784 14.3412 1.05935 14.2431C1.05086 14.1451 1.0698 14.0465 1.11405 13.9586C1.15831 13.8706 1.22614 13.7967 1.30997 13.745C1.3938 13.6934 1.49033 13.6661 1.5888 13.6661C1.7661 13.6661 2.25286 13.5044 2.25286 12.9831C2.25286 11.6859 3.29544 10.6303 4.57708 10.6303C5.85872 10.6303 6.9013 11.6859 6.9013 12.9831C6.9013 14.614 5.59044 15.9418 3.97942 15.9418Z" fill="black"/>
</svg>
