<svg width="35" height="40" viewBox="0 0 35 40" fill="none" xmlns="http://www.w3.org/2000/svg">
<path fill-rule="evenodd" clip-rule="evenodd" d="M0.102041 20.1004C-0.054883 19.8549 -0.0171049 19.6784 0.122384 19.4304C5.90534 9.97555 14.6321 4.17529 25.6284 0.0296876C26.0033 -0.110971 26.5554 0.275201 26.4218 0.620455C24.7828 4.8172 23.6262 8.90398 22.9549 13.2951C22.3446 17.341 22.1761 21.5249 22.7951 25.8956C23.4518 30.8544 24.7973 34.9693 26.4188 39.4039C26.599 39.8975 26.0265 40.1226 25.5877 39.9333C14.1381 34.9719 5.46072 28.4862 0.102041 20.1004Z" fill="#EE3167"/>
<path fill-rule="evenodd" clip-rule="evenodd" d="M34.2098 28.8264C27.8805 27.0797 22.2167 24.1181 17.1981 20.2053C16.8639 19.9444 16.9017 19.5787 17.2039 19.3255C22.1877 15.1313 27.8428 11.8399 34.0965 9.51265C34.6457 9.3055 35.0991 9.70701 34.9363 10.2594C33.1637 16.2413 32.7743 22.1515 34.9596 28.0771C35.1398 28.5706 34.6864 28.9568 34.2098 28.8264Z" fill="#0098DA" fill-opacity="0.639216"/>
<path fill-rule="evenodd" clip-rule="evenodd" d="M34.2098 28.8264C30.0426 27.6755 26.1631 25.9979 22.5684 23.8726C22.3185 20.484 22.2981 18.9777 22.7021 15.2413C26.2358 12.9371 30.0397 11.0215 34.0965 9.51265C34.6458 9.3055 35.0991 9.70701 34.9364 10.2594C33.1637 16.2413 32.7743 22.1515 34.9596 28.0771C35.1398 28.5706 34.6864 28.9568 34.2098 28.8264Z" fill="#5ABAE7"/>
</svg>
