<svg id="svg" version="1.1" xmlns="http://www.w3.org/2000/svg" xmlns:xlink="http://www.w3.org/1999/xlink" width="400" height="400" viewBox="0, 0, 400,400"><g id="svgg"><path id="path0" d="M198.846 123.309 C 195.769 124.403,195.118 125.068,174.003 148.695 L 152.565 172.684 150.609 172.482 C 146.298 172.038,56.193 165.769,54.119 165.769 C 50.284 165.770,47.596 167.784,46.505 171.476 C 45.520 174.808,44.488 173.235,80.469 223.234 C 120.975 279.522,117.403 274.692,119.356 275.811 L 120.962 276.731 200.192 276.731 L 279.423 276.731 281.014 275.819 C 281.889 275.318,283.208 274.106,283.946 273.127 C 288.255 267.404,352.245 177.982,353.010 176.613 C 354.946 173.150,353.411 168.283,349.836 166.552 C 347.590 165.465,349.325 165.382,297.594 169.031 C 272.158 170.825,250.416 172.340,249.280 172.397 L 247.214 172.500 226.198 148.654 C 212.059 132.611,204.743 124.593,203.841 124.152 C 202.364 123.430,199.747 122.988,198.846 123.309 M196.409 226.411 C 196.172 226.649,143.269 206.606,143.269 206.278 C 143.269 206.103,155.212 192.479,169.808 176.002 L 196.346 146.044 196.444 186.161 C 196.498 208.226,196.482 226.338,196.409 226.411 M231.720 177.253 C 245.833 193.193,257.234 206.361,257.055 206.514 C 256.826 206.710,215.627 222.282,204.327 226.444 C 203.944 226.585,203.846 218.394,203.846 186.299 L 203.846 145.976 204.953 147.123 C 205.562 147.753,217.607 161.312,231.720 177.253 M109.869 184.821 C 126.103 185.992,139.428 186.993,139.481 187.045 C 139.622 187.186,127.726 200.557,127.342 200.690 C 127.021 200.801,80.434 183.254,80.062 182.883 C 79.811 182.631,76.705 182.429,109.869 184.821 M319.968 182.833 C 319.656 183.106,272.812 200.769,272.466 200.743 C 272.108 200.716,260.682 187.909,260.449 187.273 C 260.378 187.081,260.638 186.912,261.026 186.898 C 261.413 186.885,274.192 185.954,289.423 184.830 C 317.367 182.767,320.259 182.578,319.968 182.833 M133.269 211.153 C 163.308 222.375,188.126 231.644,188.420 231.749 C 188.715 231.855,188.877 232.021,188.779 232.118 C 188.281 232.616,123.632 256.474,123.419 256.238 C 122.801 255.554,75.769 189.998,75.769 189.821 C 75.769 189.711,76.418 189.875,77.212 190.185 C 78.005 190.494,103.231 199.930,133.269 211.153 M323.786 190.865 C 318.210 198.772,277.436 255.356,276.971 255.834 C 276.389 256.431,274.122 255.645,244.117 244.438 C 210.141 231.748,211.022 232.100,212.156 231.657 C 215.663 230.287,324.114 189.689,324.353 189.657 C 324.526 189.634,324.271 190.178,323.786 190.865 M196.448 249.712 L 196.346 261.731 164.423 261.806 C 142.692 261.857,132.684 261.756,133.077 261.489 C 133.629 261.115,195.647 237.785,196.255 237.722 C 196.417 237.706,196.504 243.101,196.448 249.712 M236.154 249.685 C 253.183 256.039,267.281 261.392,267.483 261.582 C 267.700 261.786,254.809 261.887,235.945 261.829 L 204.038 261.731 203.937 249.668 C 203.841 238.276,203.873 237.620,204.514 237.870 C 204.887 238.015,219.125 243.332,236.154 249.685 " stroke="none" fill="#fafafb" fill-rule="evenodd"></path><path id="path1" d="M182.500 0.584 C 68.066 11.060,-14.052 114.235,1.743 227.692 C 16.277 332.090,110.040 407.668,215.019 399.603 C 329.731 390.790,413.262 288.017,398.441 173.928 C 384.677 67.973,288.625 -9.131,182.500 0.584 M203.467 123.701 C 204.765 124.220,208.546 128.320,226.019 148.153 C 237.566 161.259,247.223 172.062,247.480 172.161 C 247.830 172.295,319.143 167.388,344.125 165.510 C 349.240 165.126,352.780 167.196,353.859 171.201 C 354.792 174.668,354.551 175.133,344.652 188.961 C 311.882 234.736,284.013 273.429,283.139 274.362 C 280.509 277.171,288.540 276.923,200.192 276.923 C 111.411 276.923,119.894 277.204,117.079 274.168 C 115.044 271.973,46.909 176.998,46.474 175.749 C 45.266 172.283,47.090 167.966,50.507 166.207 L 52.353 165.258 102.392 168.811 L 152.431 172.364 153.666 171.086 C 154.345 170.383,163.787 159.856,174.647 147.692 C 185.508 135.529,194.746 125.265,195.178 124.883 C 197.256 123.045,200.627 122.564,203.467 123.701 M169.808 176.317 C 155.423 192.553,143.605 205.968,143.546 206.127 C 143.437 206.420,195.783 226.268,196.026 226.025 C 196.098 225.953,196.113 208.097,196.060 186.345 L 195.962 146.797 169.808 176.317 M204.231 186.580 C 204.231 218.143,204.329 226.200,204.712 226.059 C 221.684 219.809,256.917 206.336,256.839 206.126 C 256.699 205.748,204.573 146.923,204.378 146.923 C 204.297 146.923,204.231 164.769,204.231 186.580 M81.538 183.182 C 81.644 183.299,91.845 187.227,104.206 191.911 C 116.568 196.595,126.796 200.499,126.936 200.585 C 127.220 200.761,138.846 187.904,138.846 187.413 C 138.846 187.242,127.034 186.267,112.596 185.247 C 98.159 184.227,85.221 183.298,83.846 183.181 C 82.471 183.065,81.433 183.065,81.538 183.182 M288.012 185.143 C 273.274 186.228,261.124 187.208,261.011 187.321 C 260.692 187.642,272.348 200.592,272.836 200.459 C 273.204 200.359,314.917 184.591,317.692 183.503 C 319.259 182.888,316.763 183.026,288.012 185.143 M76.394 190.462 C 76.852 191.203,123.133 255.545,123.468 255.905 C 123.635 256.086,138.314 250.808,156.088 244.178 C 173.862 237.547,188.367 232.085,188.322 232.040 C 188.257 231.975,91.316 195.651,79.113 191.118 C 77.462 190.505,76.238 190.210,76.394 190.462 M267.964 210.982 C 237.334 222.448,212.196 231.907,212.101 232.002 C 211.830 232.272,276.175 256.186,276.550 255.955 C 277.016 255.666,323.960 190.363,323.791 190.237 C 323.716 190.180,298.593 199.515,267.964 210.982 M185.000 242.123 C 179.183 244.318,165.163 249.580,153.846 253.815 L 133.269 261.516 164.712 261.527 L 196.154 261.538 196.154 249.808 C 196.154 243.356,196.024 238.089,195.865 238.104 C 195.707 238.119,190.817 239.927,185.000 242.123 M204.231 249.767 L 204.231 261.538 235.449 261.538 C 252.619 261.538,266.594 261.465,266.504 261.376 C 266.415 261.287,252.640 256.094,235.894 249.837 C 219.147 243.580,205.172 238.356,204.838 238.228 C 204.293 238.018,204.231 239.199,204.231 249.767 " stroke="none" fill="#2c7cec" fill-rule="evenodd"></path><path id="path2" d="M196.339 186.346 C 196.339 208.346,196.386 217.290,196.442 206.221 C 196.499 195.152,196.499 177.152,196.442 166.221 C 196.385 155.290,196.339 164.346,196.339 186.346 M204.031 186.346 C 204.031 208.346,204.078 217.290,204.135 206.221 C 204.191 195.152,204.191 177.152,204.135 166.221 C 204.078 155.290,204.031 164.346,204.031 186.346 M204.017 249.808 C 204.017 256.365,204.069 259.102,204.134 255.889 C 204.198 252.677,204.198 247.311,204.134 243.966 C 204.070 240.621,204.017 243.250,204.017 249.808 " stroke="none" fill="#81b2f3" fill-rule="evenodd"></path><path id="path3" d="M53.173 165.650 C 53.543 165.746,54.149 165.746,54.519 165.650 C 54.889 165.553,54.587 165.474,53.846 165.474 C 53.106 165.474,52.803 165.553,53.173 165.650 M345.481 165.650 C 345.851 165.746,346.457 165.746,346.827 165.650 C 347.197 165.553,346.894 165.474,346.154 165.474 C 345.413 165.474,345.111 165.553,345.481 165.650 M196.068 249.620 L 196.175 261.547 164.571 261.534 C 147.188 261.527,132.875 261.612,132.763 261.724 C 132.651 261.836,146.912 261.883,164.453 261.829 L 196.346 261.731 196.448 249.712 C 196.504 243.101,196.417 237.692,196.255 237.692 C 196.094 237.692,196.010 243.059,196.068 249.620 M235.577 261.538 L 204.038 261.738 235.888 261.830 C 257.047 261.892,267.658 261.794,267.500 261.538 C 267.369 261.327,267.229 261.196,267.189 261.247 C 267.148 261.298,252.923 261.429,235.577 261.538 " stroke="none" fill="#91bcf4" fill-rule="evenodd"></path><path id="path4" d="" stroke="none" fill="#5c9cec" fill-rule="evenodd"></path></g></svg>