<svg width="40" height="41" viewBox="0 0 40 41" fill="none" xmlns="http://www.w3.org/2000/svg">
<path d="M19.3883 6.15002C12.5412 6.15002 12.9685 9.33851 12.9685 9.33851L12.9769 12.6419H19.5105V13.633H10.3802C10.3802 13.633 6 13.099 6 20.5186C6 27.9363 9.82389 27.6739 9.82389 27.6739H12.1063V24.2311C12.1063 24.2311 11.9832 20.1249 15.8695 20.1249H22.3491C22.3491 20.1249 25.9901 20.1882 25.9901 16.3463V9.99376C25.9901 9.99376 26.543 6.15002 19.3883 6.15002ZM15.7852 8.37101C16.435 8.37101 16.9609 8.93576 16.9609 9.63356C16.9609 10.3313 16.435 10.8961 15.7852 10.8961C15.6307 10.8963 15.4777 10.8638 15.335 10.8005C15.1922 10.7371 15.0625 10.6441 14.9533 10.5268C14.8441 10.4096 14.7575 10.2703 14.6985 10.117C14.6395 9.9637 14.6092 9.79942 14.6094 9.63356C14.6094 8.93576 15.1354 8.37101 15.7852 8.37101Z" fill="url(#paint0_linear_59_332)"/>
<path d="M20.6117 34.85C27.4588 34.85 27.0315 32.1169 27.0315 32.1169L27.0231 29.2853H20.4895V28.4358H29.619C29.619 28.4358 34 28.8935 34 22.5344C34 16.1753 30.1761 16.401 30.1761 16.401H27.8937V19.3513C27.8937 19.3513 28.0168 22.8711 24.1305 22.8711H17.6509C17.6509 22.8711 14.0099 22.8168 14.0099 26.11V31.5553C14.0099 31.5553 13.457 34.85 20.6117 34.85ZM24.2148 32.9462C24.0604 32.9464 23.9074 32.9186 23.7646 32.8643C23.6219 32.81 23.4922 32.7303 23.3829 32.6297C23.2737 32.5292 23.1871 32.4098 23.1281 32.2784C23.0691 32.147 23.0389 32.0062 23.0391 31.864C23.0391 31.2667 23.565 30.7826 24.2148 30.7826C24.8646 30.7826 25.3906 31.2659 25.3906 31.864C25.3906 32.4629 24.8646 32.9462 24.2148 32.9462Z" fill="url(#paint1_linear_59_332)"/>
<defs>
<linearGradient id="paint0_linear_59_332" x1="8.59168" y1="8.66787" x2="22.8794" y2="22.0178" gradientUnits="userSpaceOnUse">
<stop stop-color="#387EB8"/>
<stop offset="1" stop-color="#366994"/>
</linearGradient>
<linearGradient id="paint1_linear_59_332" x1="17.8254" y1="20.1481" x2="31.0107" y2="33.8717" gradientUnits="userSpaceOnUse">
<stop stop-color="#FFE052"/>
<stop offset="1" stop-color="#FFC331"/>
</linearGradient>
</defs>
</svg>
