<svg width="44" height="28" viewBox="0 0 44 28" fill="none" xmlns="http://www.w3.org/2000/svg">
<path d="M11 9.33333C12.4667 3.11111 16.1333 0 22 0C30.8 0 31.9 7 36.3 8.16667C39.2333 8.94444 41.8 7.77778 44 4.66667C42.5333 10.8889 38.8667 14 33 14C24.2 14 23.1 7 18.7 5.83333C15.7667 5.05556 13.2 6.22222 11 9.33333ZM0 23.3333C1.46667 17.1111 5.13333 14 11 14C19.8 14 20.9 21 25.3 22.1667C28.2333 22.9444 30.8 21.7778 33 18.6667C31.5333 24.8889 27.8667 28 22 28C13.2 28 12.1 21 7.7 19.8333C4.76667 19.0556 2.2 20.2222 0 23.3333Z" fill="#44A8B3"/>
</svg>
