<svg width="36" height="28" viewBox="0 0 36 28" fill="none" xmlns="http://www.w3.org/2000/svg">
<path d="M30.1121 0.251535C31.3409 0.589083 32.4574 1.34884 33.3209 2.43494C33.7965 3.02273 34.2095 3.67698 34.5507 4.38312C34.5665 4.45982 32.3364 6.22904 30.9839 7.21592C30.9349 7.25512 30.74 7.00457 30.5192 6.61936C30.2721 6.11786 29.9214 5.69849 29.4999 5.40043C29.0783 5.10236 28.5997 4.93532 28.1086 4.91491C26.554 4.78878 25.5523 5.75009 25.5595 7.35739C25.5461 7.75226 25.6223 8.14419 25.7804 8.49255C26.1225 9.32773 26.7576 9.82884 28.7524 10.8498C32.4245 12.7162 34.0007 13.9468 34.9736 15.6956C35.5235 16.8005 35.8622 18.034 35.9659 19.3098C36.0696 20.5855 35.9359 21.8726 35.5741 23.0809C35.0768 24.406 34.2882 25.5498 33.2902 26.3935C32.2921 27.2372 31.121 27.7501 29.8985 27.879C28.5989 28.055 27.2859 28.039 25.9897 27.8312C24.0042 27.446 22.1752 26.3208 20.7702 24.6201C20.2393 23.9142 19.7899 23.1284 19.4336 22.2833C19.5834 22.1517 19.7411 22.0332 19.9056 21.9287C20.1336 21.7753 20.9968 21.189 21.8109 20.6316L23.289 19.609L23.5979 20.1408C24.1182 21.0193 24.7804 21.7677 25.5465 22.3429C26.3203 22.844 27.1967 23.0815 28.078 23.0289C28.9594 22.9762 29.811 22.6354 30.5379 22.0446C30.9129 21.6131 31.1473 21.0395 31.2001 20.4243C31.2529 19.8091 31.1207 19.1917 30.8266 18.6801C30.4282 18.0068 29.6141 17.4409 27.3003 16.2563C25.486 15.5339 23.8334 14.3365 22.4662 12.7537C21.8151 11.8775 21.3343 10.8437 21.0574 9.72487C20.8527 8.45025 20.8225 7.1451 20.968 5.85918C21.2396 4.37944 21.8899 3.03408 22.8307 2.0054C23.7716 0.976726 24.9575 0.314466 26.2278 0.108362C27.5213 -0.0741574 28.8308 -0.0258935 30.1121 0.251535ZM18.0695 2.77923L18.0854 5.25751H11.4023V27.6676H6.6895V5.26262H0.00639688V2.82866C-0.0113773 1.99514 0.00789494 1.16108 0.0641342 0.329939C0.0886726 0.290737 4.15194 0.271988 9.07838 0.282215L18.0436 0.311191L18.0695 2.77923Z" fill="#007ACC"/>
</svg>
