<svg width="17" height="17" viewBox="0 0 17 17" fill="none" xmlns="http://www.w3.org/2000/svg">
<path d="M0.53125 11.6875C0.531689 12.1101 0.699743 12.5152 0.998534 12.814C1.29732 13.1128 1.70245 13.2808 2.125 13.2812H6.57023L6.43742 14.3438H4.78125C4.64035 14.3438 4.50523 14.3997 4.4056 14.4993C4.30597 14.599 4.25 14.7341 4.25 14.875C4.25 15.0159 4.30597 15.151 4.4056 15.2507C4.50523 15.3503 4.64035 15.4062 4.78125 15.4062H12.2188C12.3596 15.4062 12.4948 15.3503 12.5944 15.2507C12.694 15.151 12.75 15.0159 12.75 14.875C12.75 14.7341 12.694 14.599 12.5944 14.4993C12.4948 14.3997 12.3596 14.3438 12.2188 14.3438H10.5626L10.4298 13.2812H14.875C15.2976 13.2808 15.7027 13.1128 16.0015 12.814C16.3003 12.5152 16.4683 12.1101 16.4688 11.6875V10.0938H0.53125V11.6875ZM8.5 11.1562C8.60507 11.1562 8.70778 11.1874 8.79515 11.2458C8.88251 11.3042 8.9506 11.3871 8.99081 11.4842C9.03102 11.5813 9.04154 11.6881 9.02104 11.7911C9.00054 11.8942 8.94995 11.9889 8.87565 12.0632C8.80135 12.1374 8.70669 12.188 8.60364 12.2085C8.50059 12.229 8.39377 12.2185 8.2967 12.1783C8.19963 12.1381 8.11666 12.07 8.05828 11.9826C7.99991 11.8953 7.96875 11.7926 7.96875 11.6875C7.96875 11.5466 8.02472 11.4115 8.12435 11.3118C8.22398 11.2122 8.3591 11.1562 8.5 11.1562Z" fill="black"/>
<path d="M16.4688 3.1875C16.4683 2.76495 16.3003 2.35982 16.0015 2.06103C15.7027 1.76224 15.2976 1.59419 14.875 1.59375H2.125C1.70245 1.59419 1.29732 1.76224 0.998534 2.06103C0.699743 2.35982 0.531689 2.76495 0.53125 3.1875V9.5625H16.4688V3.1875Z" fill="black"/>
</svg>
