<svg width="22" height="22" viewBox="0 0 22 22" fill="none" xmlns="http://www.w3.org/2000/svg">
<path d="M19.6208 4.25H18.5042C18.5031 4.25 18.502 4.25044 18.5012 4.25124C18.5004 4.25203 18.5 4.2531 18.5 4.25422V18.5C18.5 18.8978 18.658 19.2794 18.9393 19.5607C19.2206 19.842 19.6022 20 20 20C20.3978 20 20.7794 19.842 21.0607 19.5607C21.342 19.2794 21.5 18.8978 21.5 18.5V6.12922C21.5 5.63082 21.302 5.15283 20.9496 4.80041C20.5972 4.44799 20.1192 4.25 19.6208 4.25Z" fill="#826FA5"/>
<path d="M17 18.5V2.375C17 2.12877 16.9515 1.88495 16.8573 1.65747C16.763 1.42998 16.6249 1.22328 16.4508 1.04917C16.2767 0.875065 16.07 0.736953 15.8425 0.642726C15.615 0.548498 15.3712 0.5 15.125 0.5H2.375C1.87772 0.5 1.40081 0.697544 1.04917 1.04917C0.697544 1.40081 0.5 1.87772 0.5 2.375V18.875C0.5 19.5712 0.776562 20.2389 1.26884 20.7312C1.76113 21.2234 2.42881 21.5 3.125 21.5H19.1961C19.2032 21.5001 19.2102 21.4987 19.2168 21.496C19.2234 21.4933 19.2293 21.4894 19.2344 21.4844C19.2394 21.4793 19.2433 21.4734 19.246 21.4668C19.2487 21.4602 19.2501 21.4532 19.25 21.4461C19.25 21.4343 19.2461 21.4229 19.2388 21.4135C19.2316 21.4042 19.2216 21.3975 19.2102 21.3945C18.5757 21.2205 18.0159 20.8431 17.6167 20.3202C17.2174 19.7973 17.0008 19.1579 17 18.5ZM3.5 5C3.5 4.80109 3.57902 4.61032 3.71967 4.46967C3.86032 4.32902 4.05109 4.25 4.25 4.25H7.25C7.44891 4.25 7.63968 4.32902 7.78033 4.46967C7.92098 4.61032 8 4.80109 8 5V8C8 8.19891 7.92098 8.38968 7.78033 8.53033C7.63968 8.67098 7.44891 8.75 7.25 8.75H4.25C4.05109 8.75 3.86032 8.67098 3.71967 8.53033C3.57902 8.38968 3.5 8.19891 3.5 8V5ZM13.25 17.75H4.27109C3.8675 17.75 3.52109 17.4397 3.50094 17.0361C3.49605 16.9347 3.51181 16.8333 3.54724 16.7382C3.58268 16.6431 3.63707 16.5561 3.7071 16.4826C3.77714 16.4091 3.86137 16.3506 3.95469 16.3106C4.04801 16.2706 4.14848 16.25 4.25 16.25H13.2289C13.6325 16.25 13.9789 16.5603 13.9991 16.9639C14.0039 17.0653 13.9882 17.1667 13.9528 17.2618C13.9173 17.3569 13.8629 17.4439 13.7929 17.5174C13.7229 17.5909 13.6386 17.6494 13.5453 17.6894C13.452 17.7294 13.3515 17.75 13.25 17.75ZM13.25 14.75H4.27109C3.8675 14.75 3.52109 14.4397 3.50094 14.0361C3.49605 13.9347 3.51181 13.8333 3.54724 13.7382C3.58268 13.6431 3.63707 13.5561 3.7071 13.4826C3.77714 13.4091 3.86137 13.3506 3.95469 13.3106C4.04801 13.2706 4.14848 13.25 4.25 13.25H13.2289C13.6325 13.25 13.9789 13.5603 13.9991 13.9639C14.0039 14.0653 13.9882 14.1667 13.9528 14.2618C13.9173 14.3569 13.8629 14.4439 13.7929 14.5174C13.7229 14.5909 13.6386 14.6494 13.5453 14.6894C13.452 14.7294 13.3515 14.75 13.25 14.75ZM13.25 11.75H4.27109C3.8675 11.75 3.52109 11.4397 3.50094 11.0361C3.49605 10.9347 3.51181 10.8333 3.54724 10.7382C3.58268 10.6431 3.63707 10.5561 3.7071 10.4826C3.77714 10.4091 3.86137 10.3506 3.95469 10.3106C4.04801 10.2706 4.14848 10.25 4.25 10.25H13.2289C13.6325 10.25 13.9789 10.5603 13.9991 10.9639C14.0039 11.0653 13.9882 11.1667 13.9528 11.2618C13.9173 11.3569 13.8629 11.4439 13.7929 11.5174C13.7229 11.5909 13.6386 11.6494 13.5453 11.6894C13.452 11.7294 13.3515 11.75 13.25 11.75ZM13.25 8.75H10.2711C9.8675 8.75 9.52109 8.43969 9.50094 8.03609C9.49605 7.93469 9.51181 7.83334 9.54724 7.7382C9.58268 7.64307 9.63707 7.55611 9.7071 7.48261C9.77714 7.40911 9.86137 7.3506 9.95469 7.31062C10.048 7.27063 10.1485 7.25001 10.25 7.25H13.2289C13.6325 7.25 13.9789 7.56031 13.9991 7.96391C14.0039 8.06531 13.9882 8.16666 13.9528 8.2618C13.9173 8.35693 13.8629 8.44389 13.7929 8.51739C13.7229 8.59089 13.6386 8.6494 13.5453 8.68938C13.452 8.72937 13.3515 8.74999 13.25 8.75ZM13.25 5.75H10.2711C9.8675 5.75 9.52109 5.43969 9.50094 5.03609C9.49605 4.93469 9.51181 4.83334 9.54724 4.7382C9.58268 4.64307 9.63707 4.55611 9.7071 4.48261C9.77714 4.40911 9.86137 4.3506 9.95469 4.31062C10.048 4.27063 10.1485 4.25001 10.25 4.25H13.2289C13.6325 4.25 13.9789 4.56031 13.9991 4.96391C14.0039 5.06531 13.9882 5.16666 13.9528 5.2618C13.9173 5.35693 13.8629 5.44389 13.7929 5.51739C13.7229 5.59089 13.6386 5.6494 13.5453 5.68938C13.452 5.72937 13.3515 5.74999 13.25 5.75Z" fill="#826FA5"/>
</svg>
