<svg width="41" height="41" viewBox="0 0 41 41" fill="none" xmlns="http://www.w3.org/2000/svg">
<path d="M30.1094 12.8125H21.7812V25.0941L26.0006 20.8756C26.2428 20.6454 26.5654 20.519 26.8995 20.5233C27.2336 20.5276 27.5528 20.6622 27.789 20.8985C28.0253 21.1347 28.1599 21.4539 28.1642 21.788C28.1685 22.1221 28.0421 22.4447 27.8119 22.6869L21.4057 29.0932C21.1654 29.3333 20.8397 29.4682 20.5 29.4682C20.1603 29.4682 19.8346 29.3333 19.5943 29.0932L13.1881 22.6869C12.9579 22.4447 12.8315 22.1221 12.8358 21.788C12.8401 21.4539 12.9747 21.1347 13.211 20.8985C13.4472 20.6622 13.7664 20.5276 14.1005 20.5233C14.4346 20.519 14.7572 20.6454 14.9994 20.8756L19.2188 25.0941V12.8125H10.8906C9.70169 12.8138 8.56181 13.2866 7.7211 14.1273C6.88039 14.9681 6.40752 16.1079 6.40625 17.2969V33.9531C6.40752 35.1421 6.88039 36.2819 7.7211 37.1227C8.56181 37.9634 9.70169 38.4362 10.8906 38.4375H30.1094C31.2983 38.4362 32.4382 37.9634 33.2789 37.1227C34.1196 36.2819 34.5925 35.1421 34.5938 33.9531V17.2969C34.5925 16.1079 34.1196 14.9681 33.2789 14.1273C32.4382 13.2866 31.2983 12.8138 30.1094 12.8125Z" fill="#4976ED"/>
<path d="M21.7812 3.84375C21.7812 3.50394 21.6463 3.17805 21.406 2.93777C21.1657 2.69749 20.8398 2.5625 20.5 2.5625C20.1602 2.5625 19.8343 2.69749 19.594 2.93777C19.3537 3.17805 19.2188 3.50394 19.2188 3.84375V12.8125H21.7812V3.84375Z" fill="#4976ED"/>
</svg>
