<svg width="25" height="14" viewBox="0 0 25 14" fill="none" xmlns="http://www.w3.org/2000/svg">
<path d="M12.6221 9.5C14.4382 9.5 15.9105 8.38071 15.9105 7C15.9105 5.61929 14.4382 4.5 12.6221 4.5C10.8059 4.5 9.3336 5.61929 9.3336 7C9.3336 8.38071 10.8059 9.5 12.6221 9.5Z" fill="#826FA5"/>
<path d="M24.6887 6.32031C23.3291 4.72188 21.5651 3.36406 19.5879 2.39336C17.4006 1.31836 14.9856 0.75 12.6046 0.75C10.4198 0.75 8.27153 1.22461 6.21932 2.16055C4.12653 3.11484 2.23052 4.50898 0.583724 6.30391C0.397815 6.50676 0.295428 6.74705 0.289573 6.99425C0.283717 7.24144 0.374658 7.48438 0.550839 7.69219C1.90784 9.30664 3.65432 10.6664 5.60068 11.6238C7.79213 12.7031 10.1506 13.25 12.6046 13.25C15.0047 13.25 17.4248 12.6863 19.6028 11.6203C21.579 10.6527 23.3394 9.28984 24.6938 7.67812C24.8639 7.47514 24.9538 7.23932 24.9529 6.99865C24.952 6.75797 24.8603 6.52255 24.6887 6.32031ZM12.6221 10.75C11.6465 10.75 10.6928 10.5301 9.8816 10.118C9.07043 9.70596 8.43819 9.12029 8.06485 8.43506C7.6915 7.74984 7.59382 6.99584 7.78415 6.26841C7.97448 5.54098 8.44427 4.8728 9.13412 4.34835C9.82397 3.8239 10.7029 3.46675 11.6597 3.32206C12.6166 3.17736 13.6084 3.25162 14.5097 3.53545C15.4111 3.81928 16.1814 4.29993 16.7234 4.91661C17.2655 5.5333 17.5548 6.25832 17.5548 7C17.5533 7.99421 17.0331 8.94738 16.1083 9.65039C15.1836 10.3534 13.9298 10.7489 12.6221 10.75Z" fill="#826FA5"/>
</svg>
