<svg width="24" height="25" viewBox="0 0 24 25" fill="none" xmlns="http://www.w3.org/2000/svg">
<g clip-path="url(#clip0_59_318)">
<path d="M12 1C6.20156 1 1.5 5.82344 1.5 11.7672C1.5 16.525 4.50937 20.5562 8.68125 21.9812C8.73977 21.994 8.79949 22.0002 8.85938 22C9.24844 22 9.39844 21.7141 9.39844 21.4656C9.39844 21.2078 9.38906 20.5328 9.38437 19.6328C9.03705 19.7142 8.68173 19.7567 8.325 19.7594C6.30469 19.7594 5.84531 18.1891 5.84531 18.1891C5.36719 16.9469 4.67813 16.6141 4.67813 16.6141C3.76406 15.9719 4.67344 15.9531 4.74375 15.9531H4.74844C5.80313 16.0469 6.35625 17.0687 6.35625 17.0687C6.88125 17.9875 7.58437 18.2453 8.2125 18.2453C8.62783 18.237 9.03673 18.1412 9.4125 17.9641C9.50625 17.2703 9.77812 16.7969 10.0781 16.525C7.74844 16.2531 5.29688 15.3297 5.29688 11.2047C5.29688 10.0281 5.70469 9.06719 6.375 8.31719C6.26719 8.04531 5.90625 6.94844 6.47812 5.46719C6.55483 5.44883 6.63368 5.44095 6.7125 5.44375C7.09219 5.44375 7.95 5.58906 9.36563 6.57344C11.0857 6.09218 12.9049 6.09218 14.625 6.57344C16.0406 5.58906 16.8984 5.44375 17.2781 5.44375C17.3569 5.44095 17.4358 5.44883 17.5125 5.46719C18.0844 6.94844 17.7234 8.04531 17.6156 8.31719C18.2859 9.07187 18.6937 10.0328 18.6937 11.2047C18.6937 15.3391 16.2375 16.2484 13.8984 16.5156C14.2734 16.8484 14.6109 17.5047 14.6109 18.5078C14.6109 19.9469 14.5969 21.1094 14.5969 21.4609C14.5969 21.7141 14.7422 22 15.1312 22C15.1942 22.0003 15.2571 21.994 15.3187 21.9812C19.4953 20.5562 22.5 16.5203 22.5 11.7672C22.5 5.82344 17.7984 1 12 1Z" fill="#373737"/>
</g>
<defs>
<clipPath id="clip0_59_318">
<rect width="24" height="24" fill="white" transform="translate(0 0.5)"/>
</clipPath>
</defs>
</svg>
