<svg width="24" height="25" viewBox="0 0 24 25" fill="none" xmlns="http://www.w3.org/2000/svg">
<path d="M16.3748 2.74984C17.5342 2.75331 18.6451 3.21539 19.4648 4.03517C20.2846 4.85495 20.7467 5.96582 20.7502 7.12516V15.8748C20.7467 17.0342 20.2846 18.1451 19.4648 18.9648C18.6451 19.7846 17.5342 20.2467 16.3748 20.2502H7.62516C6.46582 20.2467 5.35495 19.7846 4.53517 18.9648C3.71539 18.1451 3.25331 17.0342 3.24984 15.8748V7.12516C3.25331 5.96582 3.71539 4.85495 4.53517 4.03517C5.35495 3.21539 6.46582 2.75331 7.62516 2.74984H16.3748ZM16.3748 1H7.62516C4.25625 1 1.5 3.75625 1.5 7.12516V15.8748C1.5 19.2437 4.25625 22 7.62516 22H16.3748C19.7437 22 22.5 19.2437 22.5 15.8748V7.12516C22.5 3.75625 19.7437 1 16.3748 1Z" fill="black"/>
<path d="M17.6873 7.12516C17.4278 7.12516 17.174 7.04818 16.9582 6.90396C16.7423 6.75974 16.5741 6.55476 16.4748 6.31493C16.3754 6.0751 16.3494 5.8112 16.4001 5.5566C16.4507 5.302 16.5757 5.06814 16.7593 4.88458C16.9428 4.70102 17.1767 4.57602 17.4313 4.52538C17.6859 4.47473 17.9498 4.50072 18.1896 4.60006C18.4294 4.6994 18.6344 4.86763 18.7786 5.08347C18.9229 5.29931 18.9998 5.55307 18.9998 5.81266C19.0002 5.98512 18.9665 6.15596 18.9007 6.31537C18.8349 6.47477 18.7382 6.61961 18.6162 6.74156C18.4943 6.86351 18.3495 6.96018 18.1901 7.026C18.0306 7.09183 17.8598 7.12553 17.6873 7.12516Z" fill="black"/>
<path d="M12 7.99984C12.6923 7.99984 13.369 8.20512 13.9446 8.58973C14.5202 8.97433 14.9688 9.52098 15.2337 10.1605C15.4986 10.8001 15.568 11.5039 15.4329 12.1828C15.2978 12.8618 14.9645 13.4855 14.475 13.975C13.9855 14.4645 13.3618 14.7978 12.6828 14.9329C12.0039 15.068 11.3001 14.9986 10.6605 14.7337C10.021 14.4688 9.47433 14.0202 9.08973 13.4446C8.70512 12.869 8.49984 12.1923 8.49984 11.5C8.50084 10.572 8.86992 9.6823 9.52611 9.02611C10.1823 8.36992 11.072 8.00084 12 7.99984ZM12 6.25C10.9616 6.25 9.94661 6.55791 9.08326 7.13478C8.2199 7.71166 7.54699 8.5316 7.14963 9.49091C6.75227 10.4502 6.6483 11.5058 6.85088 12.5242C7.05345 13.5426 7.55346 14.4781 8.28769 15.2123C9.02192 15.9465 9.95738 16.4466 10.9758 16.6491C11.9942 16.8517 13.0498 16.7477 14.0091 16.3504C14.9684 15.953 15.7883 15.2801 16.3652 14.4167C16.9421 13.5534 17.25 12.5384 17.25 11.5C17.25 10.1076 16.6969 8.77226 15.7123 7.78769C14.7277 6.80312 13.3924 6.25 12 6.25Z" fill="black"/>
</svg>
