<svg width="24" height="24" viewBox="0 0 24 24" fill="none" xmlns="http://www.w3.org/2000/svg">
<path d="M21.9891 17.9419L15.234 7.215V3.46875H16.734V1.5H7.26522V3.46875H8.76522V7.215L2.01006 17.9419C1.40069 18.9094 1.31725 19.9917 1.86944 20.9934C2.42162 21.9952 3.35537 22.5 4.49959 22.5H19.4996C20.6438 22.5 21.5771 21.9956 22.1293 20.9934C22.6815 19.9912 22.5999 18.9094 21.9891 17.9419ZM10.5179 8.12766C10.66 7.90336 10.7351 7.64317 10.7344 7.37766V3.46875H13.2657V7.43391C13.2656 7.66324 13.3306 7.88788 13.4532 8.08172L16.7255 13.2656H7.27365L10.5179 8.12766Z" fill="#9B89D4"/>
</svg>
