<svg width="24" height="25" viewBox="0 0 24 25" fill="none" xmlns="http://www.w3.org/2000/svg">
<path d="M20.8205 1H3.29437C2.33672 1 1.5 1.68906 1.5 2.63547V20.2005C1.5 21.152 2.33672 22 3.29437 22H20.8153C21.7781 22 22.5 21.1464 22.5 20.2005V2.63547C22.5056 1.68906 21.7781 1 20.8205 1ZM8.00953 18.5045H5.00109V9.15063H8.00953V18.5045ZM6.60938 7.72844H6.58781C5.625 7.72844 5.00156 7.01172 5.00156 6.11453C5.00156 5.20094 5.64141 4.50109 6.62578 4.50109C7.61016 4.50109 8.2125 5.19578 8.23406 6.11453C8.23359 7.01172 7.61016 7.72844 6.60938 7.72844ZM19.0045 18.5045H15.9961V13.39C15.9961 12.1647 15.5583 11.3275 14.4698 11.3275C13.6383 11.3275 13.1461 11.89 12.9272 12.438C12.8452 12.6348 12.8231 12.903 12.8231 13.1767V18.5045H9.81469V9.15063H12.8231V10.4523C13.2609 9.82891 13.9448 8.93172 15.5363 8.93172C17.5111 8.93172 19.005 10.2334 19.005 13.0398L19.0045 18.5045Z" fill="black"/>
</svg>
