<svg width="17" height="17" viewBox="0 0 17 17" fill="none" xmlns="http://www.w3.org/2000/svg">
<path d="M11.1562 0H5.84375C5.28016 0 4.73966 0.223883 4.34115 0.622398C3.94263 1.02091 3.71875 1.56141 3.71875 2.125V14.875C3.71875 15.4386 3.94263 15.9791 4.34115 16.3776C4.73966 16.7761 5.28016 17 5.84375 17H11.1562C11.7198 17 12.2603 16.7761 12.6589 16.3776C13.0574 15.9791 13.2812 15.4386 13.2812 14.875V2.125C13.2812 1.56141 13.0574 1.02091 12.6589 0.622398C12.2603 0.223883 11.7198 0 11.1562 0ZM12.2188 14.875C12.2188 15.1568 12.1068 15.427 11.9076 15.6263C11.7083 15.8256 11.438 15.9375 11.1562 15.9375H5.84375C5.56196 15.9375 5.29171 15.8256 5.09245 15.6263C4.89319 15.427 4.78125 15.1568 4.78125 14.875V2.125C4.78125 1.84321 4.89319 1.57296 5.09245 1.3737C5.29171 1.17444 5.56196 1.0625 5.84375 1.0625H6.22061C6.27198 1.06231 6.32229 1.07714 6.36535 1.10516C6.40841 1.13318 6.44235 1.17317 6.46299 1.22021C6.54548 1.41012 6.68166 1.57178 6.85479 1.68533C7.02792 1.79888 7.23045 1.85937 7.4375 1.85938H9.5625C9.76954 1.85937 9.97208 1.79888 10.1452 1.68533C10.3183 1.57178 10.4545 1.41012 10.537 1.22021C10.5577 1.17317 10.5916 1.13318 10.6346 1.10516C10.6777 1.07714 10.728 1.06231 10.7794 1.0625H11.1562C11.438 1.0625 11.7083 1.17444 11.9076 1.3737C12.1068 1.57296 12.2188 1.84321 12.2188 2.125V14.875Z" fill="black"/>
<path d="M11.1562 1.59375C11.095 1.59338 11.0346 1.60725 10.9797 1.63428C10.9247 1.66131 10.8769 1.70074 10.8398 1.74947C10.6915 1.9484 10.4988 2.10995 10.2771 2.22126C10.0553 2.33257 9.81062 2.39056 9.5625 2.39062H7.4375C7.18938 2.39056 6.94469 2.33257 6.72294 2.22126C6.50118 2.10995 6.30848 1.9484 6.16018 1.74947C6.12313 1.70074 6.07525 1.66131 6.02034 1.63428C5.96542 1.60725 5.90496 1.59338 5.84375 1.59375C5.70285 1.59375 5.56773 1.64972 5.4681 1.74935C5.36847 1.84898 5.3125 1.9841 5.3125 2.125V14.875C5.3125 15.0159 5.36847 15.151 5.4681 15.2507C5.56773 15.3503 5.70285 15.4062 5.84375 15.4062H11.1562C11.2971 15.4062 11.4323 15.3503 11.5319 15.2507C11.6315 15.151 11.6875 15.0159 11.6875 14.875V2.125C11.6875 1.9841 11.6315 1.84898 11.5319 1.74935C11.4323 1.64972 11.2971 1.59375 11.1562 1.59375Z" fill="black"/>
<path d="M11.1562 0H5.84375C5.28016 0 4.73966 0.223883 4.34115 0.622398C3.94263 1.02091 3.71875 1.56141 3.71875 2.125V14.875C3.71875 15.4386 3.94263 15.9791 4.34115 16.3776C4.73966 16.7761 5.28016 17 5.84375 17H11.1562C11.7198 17 12.2603 16.7761 12.6589 16.3776C13.0574 15.9791 13.2812 15.4386 13.2812 14.875V2.125C13.2812 1.56141 13.0574 1.02091 12.6589 0.622398C12.2603 0.223883 11.7198 0 11.1562 0ZM12.2188 14.875C12.2188 15.1568 12.1068 15.427 11.9076 15.6263C11.7083 15.8256 11.438 15.9375 11.1562 15.9375H5.84375C5.56196 15.9375 5.29171 15.8256 5.09245 15.6263C4.89319 15.427 4.78125 15.1568 4.78125 14.875V2.125C4.78125 1.84321 4.89319 1.57296 5.09245 1.3737C5.29171 1.17444 5.56196 1.0625 5.84375 1.0625H6.22061C6.27198 1.06231 6.32229 1.07714 6.36535 1.10516C6.40841 1.13318 6.44235 1.17317 6.46299 1.22021C6.54548 1.41012 6.68166 1.57178 6.85479 1.68533C7.02792 1.79888 7.23045 1.85937 7.4375 1.85938H9.5625C9.76954 1.85937 9.97208 1.79888 10.1452 1.68533C10.3183 1.57178 10.4545 1.41012 10.537 1.22021C10.5577 1.17317 10.5916 1.13318 10.6346 1.10516C10.6777 1.07714 10.728 1.06231 10.7794 1.0625H11.1562C11.438 1.0625 11.7083 1.17444 11.9076 1.3737C12.1068 1.57296 12.2188 1.84321 12.2188 2.125V14.875Z" fill="black"/>
</svg>
