<svg width="24" height="18" viewBox="0 0 24 18" fill="none" xmlns="http://www.w3.org/2000/svg">
<path d="M3.79606 9.87703C4.23481 14.0156 7.74575 17.25 11.9992 17.25C13.1539 17.2513 14.2959 17.0086 15.3503 16.538C13.4612 15.7631 11.4104 14.7488 9.36106 13.568C7.35856 12.4153 5.42919 11.1328 3.79606 9.87703Z" fill="#826FA5"/>
<path d="M23.0954 12.9145C22.697 12.3844 22.1579 11.7989 21.5017 11.1802C21.3765 11.7254 21.2039 12.2587 20.9861 12.7739C22.3323 14.1567 22.5423 14.8992 22.494 15.045C22.4003 15.1495 21.6948 15.368 19.7682 14.8795C19.4923 14.8095 19.1904 14.7242 18.8626 14.6236C18.6514 14.5586 18.4359 14.4884 18.2162 14.4131C18.5613 14.0173 18.868 13.5896 19.1322 13.1358C19.1401 13.1222 19.1486 13.1086 19.1565 13.0945C19.8723 11.8486 20.249 10.4369 20.2492 9C20.2494 8.70251 20.2337 8.40521 20.2023 8.10938C19.7537 3.97641 16.2461 0.750001 11.9992 0.750001C10.1972 0.748988 8.44486 1.34008 7.01169 2.43234C6.14304 3.09349 5.41306 3.91919 4.86341 4.86234C4.85591 4.87594 4.84747 4.88953 4.8395 4.90313C4.57827 5.35823 4.36118 5.83729 4.19122 6.33375C4.01653 6.18156 3.84794 6.03047 3.68544 5.88047C3.43278 5.6461 3.20872 5.42906 3.0095 5.22422C1.62341 3.80578 1.45841 3.08625 1.502 2.95313C1.60325 2.83922 2.35044 2.64656 4.22684 3.11953C4.5657 2.67325 4.94207 2.25674 5.35184 1.87453C4.46778 1.61156 3.67419 1.43625 3.00575 1.35891C1.56528 1.19391 0.622624 1.4775 0.203093 2.20313C0.0512178 2.46469 -0.0945634 2.91047 0.0755928 3.54375C0.327312 4.48406 1.2245 5.625 2.49434 6.82031C2.89887 7.20141 3.34091 7.58766 3.81247 7.97531C4.15559 8.25656 4.51559 8.54063 4.88591 8.82281C5.13309 9.01031 5.38544 9.19781 5.64294 9.38531C5.90044 9.57281 6.16137 9.75688 6.42575 9.9375C7.61684 10.763 8.87544 11.5556 10.1097 12.2667C10.5578 12.5248 11.0053 12.7748 11.4522 13.0167C11.899 13.2586 12.3423 13.49 12.782 13.7109C13.8086 14.2266 14.814 14.6916 15.7754 15.0905C16.1876 15.2617 16.5909 15.4205 16.9853 15.5667C17.5426 15.7739 18.0807 15.9563 18.5936 16.11L18.6451 16.1255C19.8512 16.4845 20.8679 16.6734 21.6676 16.688H21.7492C22.7636 16.688 23.4507 16.3889 23.792 15.7973C24.2181 15.0652 23.9832 14.0948 23.0954 12.9145Z" fill="#826FA5"/>
</svg>
