<svg width="22" height="22" viewBox="0 0 22 22" fill="none" xmlns="http://www.w3.org/2000/svg">
<path d="M14.4149 6.34979C14.1255 6.34995 13.845 6.45046 13.6214 6.6342C13.3978 6.81793 13.2447 7.07353 13.1884 7.35743C13.1321 7.64134 13.176 7.93599 13.3125 8.19118C13.4491 8.44638 13.6699 8.64633 13.9374 8.75697C14.2048 8.86761 14.5024 8.88209 14.7793 8.79794C15.0562 8.7138 15.2954 8.53624 15.4561 8.29551C15.6168 8.05478 15.6891 7.76578 15.6606 7.47775C15.6321 7.18971 15.5047 6.92047 15.2999 6.71589C15.1838 6.59954 15.0458 6.50731 14.894 6.44448C14.7421 6.38165 14.5793 6.34947 14.4149 6.34979Z" fill="#826FA5"/>
<path d="M21.3801 1.34682C21.3799 1.34542 21.3799 1.344 21.3801 1.3426C21.3404 1.16885 21.253 1.00962 21.1277 0.882899C21.0024 0.756175 20.8442 0.666993 20.6709 0.625416C19.274 0.284635 17.0765 0.647916 14.6413 1.62292C12.1869 2.60729 9.88726 4.06042 8.33288 5.6176C7.83467 6.11317 7.37181 6.64307 6.94773 7.20338C5.90101 7.15651 4.97898 7.30557 4.20226 7.64448C1.4957 8.83557 0.722727 11.8839 0.516946 13.1354C0.487169 13.3132 0.498828 13.4956 0.551016 13.6681C0.603205 13.8407 0.694515 13.9989 0.81784 14.1305C0.941165 14.262 1.09318 14.3633 1.26205 14.4265C1.43092 14.4897 1.6121 14.5131 1.79148 14.4948H1.79757L4.81257 14.1657C4.81632 14.2042 4.82054 14.2393 4.82382 14.2717C4.86254 14.6391 5.02639 14.982 5.28788 15.2429L6.75929 16.7153C7.01985 16.9771 7.36269 17.1412 7.73007 17.1798L7.83085 17.1906L7.50273 20.2018C7.50273 20.2018 7.50273 20.2056 7.50273 20.2079C7.48596 20.3701 7.50321 20.534 7.55339 20.6891C7.60357 20.8442 7.68557 20.9872 7.79415 21.1088C7.90272 21.2305 8.03548 21.3281 8.18394 21.3955C8.3324 21.4629 8.49329 21.4986 8.65632 21.5003C8.72149 21.5003 8.78656 21.495 8.85085 21.4843C10.1094 21.2818 13.1563 20.5182 14.3441 17.7971C14.6802 17.0256 14.8288 16.1073 14.7871 15.0624C15.3499 14.6393 15.8818 14.1764 16.3785 13.6773C17.9455 12.1182 19.4034 9.83729 20.3774 7.41854C21.3473 5.01104 21.7124 2.79714 21.3801 1.34682ZM16.3616 9.54432C15.9765 9.92988 15.4856 10.1925 14.9511 10.2991C14.4167 10.4056 13.8626 10.3512 13.3591 10.1428C12.8555 9.93436 12.4251 9.58127 12.1223 9.12818C11.8194 8.67508 11.6578 8.14235 11.6578 7.59737C11.6578 7.05239 11.8194 6.51966 12.1223 6.06656C12.4251 5.61347 12.8555 5.26037 13.3591 5.05195C13.8626 4.84353 14.4167 4.78914 14.9511 4.89567C15.4856 5.0022 15.9765 5.26486 16.3616 5.65042C16.6198 5.9047 16.8248 6.20778 16.9647 6.54203C17.1047 6.87627 17.1767 7.23501 17.1767 7.59737C17.1767 7.95973 17.1047 8.31847 16.9647 8.65271C16.8248 8.98696 16.6198 9.29004 16.3616 9.54432Z" fill="#826FA5"/>
<path d="M6.59054 17.1146C6.40916 17.0921 6.2258 17.1366 6.07491 17.2398C5.77538 17.4446 5.47445 17.6471 5.1707 17.8445C4.55616 18.2439 3.82116 17.5426 4.18632 16.907L4.75585 15.9226C4.83728 15.8035 4.88262 15.6634 4.88643 15.5192C4.89025 15.375 4.85238 15.2327 4.77737 15.1094C4.70236 14.9862 4.5934 14.8872 4.46353 14.8243C4.33367 14.7614 4.18843 14.7374 4.04523 14.7549C3.41312 14.8349 2.82556 15.1228 2.37507 15.5734C2.20351 15.7454 1.68179 16.2676 1.40101 18.2574C1.32109 18.829 1.27071 19.4043 1.25007 19.981C1.24751 20.0811 1.26501 20.1807 1.30155 20.274C1.33809 20.3672 1.39293 20.4521 1.46283 20.5238C1.53273 20.5955 1.61628 20.6525 1.70855 20.6914C1.80082 20.7303 1.89994 20.7503 2.00007 20.7503H2.01882C2.59601 20.7298 3.17177 20.6798 3.74382 20.6003C5.7346 20.319 6.25679 19.7968 6.42835 19.6253C6.88102 19.1746 7.16825 18.5843 7.24351 17.9499C7.26761 17.7526 7.21237 17.5538 7.08993 17.3971C6.96749 17.2405 6.78786 17.1389 6.59054 17.1146Z" fill="#826FA5"/>
</svg>
