<svg width="20" height="24" viewBox="0 0 20 24" fill="none" xmlns="http://www.w3.org/2000/svg">
<path d="M16.7481 0H6.24814C5.58301 0.00054868 4.93687 0.221737 4.41094 0.628907C3.88501 1.03608 3.50902 1.60622 3.34189 2.25H14.0294C14.9494 2.25 15.8316 2.61546 16.4822 3.26597C17.1327 3.91649 17.4981 4.79878 17.4981 5.71875V20.0105L18.5294 20.8355C18.6572 20.9378 18.815 20.9955 18.9787 20.9997C19.1424 21.004 19.303 20.9545 19.4359 20.8589C19.5342 20.7864 19.6137 20.6915 19.668 20.5821C19.7223 20.4727 19.7498 20.352 19.7481 20.2298V3C19.7481 2.20435 19.4321 1.44129 18.8695 0.87868C18.3068 0.316071 17.5438 0 16.7481 0Z" fill="#826FA5"/>
<path d="M12.9981 3.75H3.24814C2.45249 3.75 1.68942 4.06607 1.12682 4.62868C0.564206 5.19129 0.248136 5.95435 0.248136 6.75V23.2322C0.246286 23.3538 0.273376 23.474 0.327168 23.5831C0.38096 23.6922 0.459912 23.7868 0.55751 23.8594C0.693096 23.9578 0.857747 24.0081 1.0252 24.002C1.19266 23.996 1.35327 23.9341 1.48142 23.8261L8.12314 18.2306L14.7649 23.8237C14.8922 23.931 15.0515 23.9929 15.2179 23.9996C15.3842 24.0063 15.5481 23.9574 15.6836 23.8608C15.7824 23.7884 15.8625 23.6935 15.9172 23.5839C15.972 23.4743 15.9997 23.3533 15.9981 23.2308V6.75C15.9981 5.95435 15.6821 5.19129 15.1195 4.62868C14.5568 4.06607 13.7938 3.75 12.9981 3.75Z" fill="#826FA5"/>
</svg>
