<svg width="24" height="25" viewBox="0 0 24 25" fill="none" xmlns="http://www.w3.org/2000/svg">
<path fill-rule="evenodd" clip-rule="evenodd" d="M19.4405 5.05149C18.4697 4.08027 17.3165 3.31065 16.0471 2.78693C14.7777 2.26322 13.4172 1.99575 12.0441 1.99993C6.28125 1.99993 1.59 6.66774 1.58766 12.4062C1.58511 14.2334 2.06676 16.0287 2.98359 17.6093L1.5 22.9999L7.04297 21.5529C8.57729 22.3841 10.2948 22.8191 12.0398 22.8185H12.0441C17.8064 22.8185 22.4972 18.1502 22.5 12.4123C22.5035 11.0438 22.2348 9.68826 21.7095 8.42458C21.1843 7.16091 20.413 6.0143 19.4405 5.05149V5.05149ZM12.0441 21.0621H12.0403C10.4847 21.0626 8.95739 20.6463 7.61719 19.8565L7.29984 19.669L4.01062 20.5277L4.88859 17.336L4.68187 17.0079C3.81206 15.6308 3.35121 14.035 3.35297 12.4062C3.35297 7.63758 7.25344 3.75774 12.0473 3.75774C14.347 3.75363 16.5542 4.66315 18.1833 6.28623C19.8125 7.90932 20.7302 10.1131 20.7347 12.4127C20.7328 17.1818 16.8342 21.0621 12.0441 21.0621ZM16.8108 14.5845C16.5497 14.4541 15.2639 13.8251 15.0258 13.7384C14.7877 13.6516 14.6119 13.6081 14.438 13.8687C14.2641 14.1293 13.763 14.7124 13.6106 14.8882C13.4583 15.064 13.3059 15.0832 13.0448 14.9529C12.7838 14.8226 11.9414 14.5484 10.9434 13.6624C10.1667 12.9729 9.64266 12.1216 9.49031 11.8615C9.33797 11.6013 9.47391 11.4602 9.60469 11.3309C9.72234 11.2141 9.86578 11.0271 9.99656 10.8752C10.1273 10.7234 10.1709 10.6146 10.2577 10.4412C10.3444 10.2677 10.3012 10.1159 10.2361 9.98602C10.1709 9.85618 9.64828 8.57602 9.43078 8.05524C9.21844 7.54805 9.00328 7.61696 8.84297 7.60899C8.69062 7.60149 8.51484 7.59961 8.34188 7.59961C8.20965 7.60306 8.07955 7.63372 7.9597 7.68969C7.83985 7.74566 7.73283 7.82574 7.64531 7.92493C7.40578 8.18555 6.73078 8.81555 6.73078 10.0943C6.73078 11.3731 7.66828 12.6106 7.79766 12.784C7.92703 12.9574 9.63984 15.5838 12.2606 16.7102C12.7473 16.9187 13.2445 17.1014 13.7503 17.2577C14.3761 17.4556 14.9456 17.4279 15.3956 17.3609C15.8977 17.2863 16.9425 16.7318 17.1595 16.1243C17.3766 15.5168 17.377 14.9965 17.3119 14.8882C17.2467 14.7799 17.0723 14.7143 16.8108 14.5845Z" fill="black"/>
</svg>
